<svg width="2368" height="1050" viewBox="0 0 2368 1050" fill="none" xmlns="http://www.w3.org/2000/svg">
<g filter="url(#filter0_g_344_4547)">
<path d="M796.074 646.77C686.001 619.246 290.381 590.293 101.075 601.762L210.074 459.942C602.045 247.457 210.074 -76.1087 1474.91 218.919C2739.75 513.947 2185.32 481.056 1879.26 426.995C1674.34 390.798 1816.42 513.877 1762.72 562.075C1819.11 621.99 1878.7 692.774 1941.02 775.897C2106.91 997.156 1559.04 971.447 1330.28 891.754C1064.22 799.069 933.667 681.176 796.074 646.77Z" fill="url(#paint0_linear_344_4547)" fill-opacity="0.26"/>
<path d="M796.074 646.77C686.001 619.246 290.381 590.293 101.075 601.762L210.074 459.942C602.045 247.457 210.074 -76.1087 1474.91 218.919C2739.75 513.947 2185.32 481.056 1879.26 426.995C1674.34 390.798 1816.42 513.877 1762.72 562.075C1819.11 621.99 1878.7 692.774 1941.02 775.897C2106.91 997.156 1559.04 971.447 1330.28 891.754C1064.22 799.069 933.667 681.176 796.074 646.77Z" stroke="black"/>
</g>
<defs>
<filter id="filter0_g_344_4547" x="0" y="0" width="2368" height="1049.81" filterUnits="userSpaceOnUse" color-interpolation-filters="sRGB">
<feFlood flood-opacity="0" result="BackgroundImageFix"/>
<feBlend mode="normal" in="SourceGraphic" in2="BackgroundImageFix" result="shape"/>
<feTurbulence type="fractalNoise" baseFrequency="2 2" numOctaves="3" seed="3755" />
<feDisplacementMap in="shape" scale="200" xChannelSelector="R" yChannelSelector="G" result="displacedImage" width="100%" height="100%" />
<feMerge result="effect1_texture_344_4547">
<feMergeNode in="displacedImage"/>
</feMerge>
</filter>
<linearGradient id="paint0_linear_344_4547" x1="1060.7" y1="1526.16" x2="939.917" y2="-296.582" gradientUnits="userSpaceOnUse">
<stop stop-color="#01787F" stop-opacity="0"/>
<stop offset="0.234273" stop-color="#01787F" stop-opacity="0.42"/>
<stop offset="0.471154" stop-color="#01787F"/>
<stop offset="0.841346" stop-color="#02D8E5" stop-opacity="0"/>
</linearGradient>
</defs>
</svg>
